<svg width="18" height="14" viewBox="0 0 18 14" fill="none" xmlns="http://www.w3.org/2000/svg">
<g clip-path="url(#clip0_33_98)">
<path d="M0.935869 14H17.0641C17.5826 13.9672 18 13.4823 18 12.8953V1.10469C18 0.499479 17.5598 0.00364583 17.0185 0H0.981522C0.440217 0.00364583 0 0.499479 0 1.10469V12.8917C0 13.4823 0.417391 13.9672 0.935869 14Z" fill="#FEFEFE"/>
<path d="M7.7413 8.39635V14H10.2457V8.39635H18V5.59635H10.2457V0H7.7413V5.59635H0V8.39635H7.7413Z" fill="#C8102E"/>
<path d="M11.0804 4.53177V0H17.025C17.4359 0.00729167 17.788 0.295312 17.9315 0.7L11.0804 4.53177Z" fill="#012169"/>
<path d="M11.0804 9.46814V13.9999H17.0641C17.4587 13.9744 17.7913 13.69 17.9315 13.2999L11.0804 9.46814Z" fill="#012169"/>
<path d="M6.90655 9.46814V13.9999H0.935896C0.54133 13.9744 0.205461 13.69 0.0685043 13.2926L6.90655 9.46814Z" fill="#012169"/>
<path d="M6.90655 4.53177V0H0.975026C0.564156 0.00729167 0.208722 0.298958 0.0685043 0.707292L6.90655 4.53177Z" fill="#012169"/>
<path d="M0 4.66665H2.49457L0 3.27029V4.66665Z" fill="#012169"/>
<path d="M18 4.66662H15.4924L18 3.26297V4.66662Z" fill="#012169"/>
<path d="M18 9.33331H15.4924L18 10.737V9.33331Z" fill="#012169"/>
<path d="M0 9.33331H2.49457L0 10.7297V9.33331Z" fill="#012169"/>
<path d="M18.0001 1.18494L11.7881 4.66671H13.1773L18.0001 1.96879V1.18494Z" fill="#C8102E"/>
<path d="M6.19891 9.33331H4.80978L0 12.0239V12.8078L6.21196 9.33331H6.19891Z" fill="#C8102E"/>
<path d="M3.43044 4.67024H4.81957L0 1.97232V2.75253L3.43044 4.67024Z" fill="#C8102E"/>
<path d="M14.5532 9.3298H13.1641L17.9999 12.0387V11.2584L14.5532 9.3298Z" fill="#C8102E"/>
</g>
<defs>
<clipPath id="clip0_33_98">
<rect width="18" height="14" rx="2" fill="white"/>
</clipPath>
</defs>
</svg>
