<?xml version="1.0" encoding="UTF-8"?>
<!DOCTYPE svg PUBLIC "-//W3C//DTD SVG 1.1//EN" "http://www.w3.org/Graphics/SVG/1.1/DTD/svg11.dtd">
<svg xmlns="http://www.w3.org/2000/svg" version="1.1" width="18px" height="14px" style="shape-rendering:geometricPrecision; text-rendering:geometricPrecision; image-rendering:optimizeQuality; fill-rule:evenodd; clip-rule:evenodd" xmlns:xlink="http://www.w3.org/1999/xlink">
<g><path style="opacity:0.968" fill="#32a44a" d="M -0.5,-0.5 C 5.5,-0.5 11.5,-0.5 17.5,-0.5C 17.5,0.833333 17.5,2.16667 17.5,3.5C 11.5,3.5 5.5,3.5 -0.5,3.5C -0.5,2.16667 -0.5,0.833333 -0.5,-0.5 Z"/></g>
<g><path style="opacity:1" fill="#faf5f4" d="M -0.5,3.5 C 5.5,3.5 11.5,3.5 17.5,3.5C 17.5,5.5 17.5,7.5 17.5,9.5C 11.5,9.5 5.5,9.5 -0.5,9.5C -0.5,7.5 -0.5,5.5 -0.5,3.5 Z"/></g>
<g><path style="opacity:1" fill="#ef9594" d="M 7.5,4.5 C 10.8606,5.20318 11.1939,6.53651 8.5,8.5C 6.35765,7.56289 6.02431,6.22955 7.5,4.5 Z"/></g>
<g><path style="opacity:0.969" fill="#dc1c14" d="M -0.5,9.5 C 5.5,9.5 11.5,9.5 17.5,9.5C 17.5,10.8333 17.5,12.1667 17.5,13.5C 11.5,13.5 5.5,13.5 -0.5,13.5C -0.5,12.1667 -0.5,10.8333 -0.5,9.5 Z"/></g>
</svg>
