<svg width="151" height="48" viewBox="0 0 151 48" fill="none" xmlns="http://www.w3.org/2000/svg">
<path fill-rule="evenodd" clip-rule="evenodd" d="M23.0384 8.47221L6.04771 38.069H0.409442C0.488478 37.8594 0.585986 37.652 0.702919 37.4483L20.3006 3.31034C20.9343 2.20645 21.9484 1.54429 23.0384 1.32387V8.47221ZM23.0384 40.1379H0.193848C0.488083 42.041 2.09911 43.6552 4.26612 43.6552H23.0384V40.1379ZM24.6842 43.6552V40.1379H47.5337C47.2395 42.041 45.6283 43.6552 43.4616 43.6552H24.6842ZM24.6842 8.4636V1.32288C25.7761 1.5423 26.7923 2.20479 27.427 3.31034L47.0247 37.4483C47.1416 37.6519 47.2391 37.8594 47.3181 38.069H41.6797L24.6842 8.4636ZM23.9509 1.24229C23.8928 1.24108 23.8347 1.24108 23.7766 1.24229H23.9509Z" fill="white"/>
<path d="M67.1543 12.1333V1.42766H68.8527V15.3311H67.3913L59.531 4.46656V15.3311H57.8326V1.42766H59.4125L67.1543 12.1333ZM77.0923 15.5496C73.8534 15.5496 71.4242 13.1661 71.4242 9.94849C71.4242 6.73083 73.8534 4.36725 77.0923 4.36725C80.3114 4.36725 82.7406 6.7507 82.7406 9.94849C82.7406 13.1661 80.3114 15.5496 77.0923 15.5496ZM77.0923 13.9209C79.3635 13.9209 81.0224 12.2525 81.0224 9.96835C81.0224 7.66435 79.3635 5.99594 77.0923 5.99594C74.8014 5.99594 73.1424 7.66435 73.1424 9.94849C73.1424 12.2525 74.8014 13.9209 77.0923 13.9209ZM88.9727 13.1264L92.5079 4.60559H94.226L89.743 15.3311H88.2025L83.6009 4.60559H85.3389L88.9727 13.1264ZM104.864 6.23428L105.081 4.58573H106.404V15.3112H105.022L104.844 13.7024C103.857 14.8544 102.395 15.5496 100.657 15.5496C97.4974 15.5496 95.1275 13.1463 95.1275 9.96835C95.1275 6.7507 97.4974 4.36725 100.657 4.36725C102.395 4.36725 103.876 5.06242 104.864 6.23428ZM100.776 13.9209C103.047 13.9209 104.686 12.2326 104.686 9.94849C104.686 7.68421 103.047 5.99594 100.776 5.99594C98.5244 5.99594 96.8457 7.70408 96.8457 9.94849C96.8457 12.2128 98.5244 13.9209 100.776 13.9209Z" fill="white"/>
<path d="M74.1784 42.2077H70.8869L69.3069 38.1824H61.0649L59.5113 42.2077H56.2987L63.6981 23.6699H66.542L74.1784 42.2077ZM68.2536 35.4547L65.1727 27.6423L62.1182 35.4547H68.2536ZM82.6418 42.5785C78.4023 42.5785 75.1898 39.3212 75.1898 35.0575C75.1898 30.7937 78.4023 27.5628 82.6418 27.5628C86.1704 27.5628 88.9089 29.7344 89.6989 33.0183H86.8024C86.065 31.3764 84.4851 30.37 82.6418 30.37C80.0876 30.37 78.1653 32.4092 78.1653 35.0575C78.1653 37.7057 80.1139 39.7714 82.6418 39.7714C84.5114 39.7714 86.0124 38.765 86.776 37.0172H89.7253C88.9616 40.354 86.144 42.5785 82.6418 42.5785ZM99.0227 42.5785C94.7831 42.5785 91.5706 39.3212 91.5706 35.0575C91.5706 30.7937 94.7831 27.5628 99.0227 27.5628C102.551 27.5628 105.29 29.7344 106.08 33.0183H103.183C102.446 31.3764 100.866 30.37 99.0227 30.37C96.4684 30.37 94.5461 32.4092 94.5461 35.0575C94.5461 37.7057 96.4947 39.7714 99.0227 39.7714C100.892 39.7714 102.393 38.765 103.157 37.0172H106.106C105.342 40.354 102.525 42.5785 99.0227 42.5785ZM122.513 35.1104C122.513 35.4282 122.486 35.746 122.434 36.0638H110.9C111.269 38.3943 112.928 39.8244 115.245 39.8244C116.957 39.8244 118.326 39.0299 119.09 37.7057H122.171C121.038 40.7248 118.431 42.5785 115.245 42.5785C111.085 42.5785 107.951 39.3477 107.951 35.0575C107.951 30.7937 111.085 27.5628 115.245 27.5628C119.616 27.5628 122.513 30.9526 122.513 35.1104ZM115.245 30.2376C113.059 30.2376 111.453 31.5617 110.979 33.6804H119.564C119.037 31.5088 117.431 30.2376 115.245 30.2376ZM130.33 42.5785C126.88 42.5785 124.616 40.6453 124.537 37.6793H127.381C127.46 39.1888 128.724 39.9833 130.435 39.9833C132.015 39.9833 133.226 39.3212 133.226 38.1295C133.226 36.7524 131.699 36.461 129.961 36.1697C127.591 35.746 124.8 35.2164 124.8 31.906C124.8 29.3372 126.986 27.5628 130.304 27.5628C133.595 27.5628 135.754 29.3902 135.807 32.1444H133.042C132.989 30.7937 131.936 30.0522 130.225 30.0522C128.618 30.0522 127.618 30.7673 127.618 31.8001C127.618 33.0713 129.066 33.3096 130.778 33.6009C133.174 33.9982 136.097 34.4748 136.097 37.997C136.097 40.7777 133.806 42.5785 130.33 42.5785ZM143.959 42.5785C140.509 42.5785 138.245 40.6453 138.166 37.6793H141.01C141.089 39.1888 142.353 39.9833 144.064 39.9833C145.644 39.9833 146.856 39.3212 146.856 38.1295C146.856 36.7524 145.328 36.461 143.59 36.1697C141.22 35.746 138.429 35.2164 138.429 31.906C138.429 29.3372 140.615 27.5628 143.933 27.5628C147.224 27.5628 149.383 29.3902 149.436 32.1444H146.671C146.619 30.7937 145.565 30.0522 143.854 30.0522C142.247 30.0522 141.247 30.7673 141.247 31.8001C141.247 33.0713 142.695 33.3096 144.407 33.6009C146.803 33.9982 149.726 34.4748 149.726 37.997C149.726 40.7777 147.435 42.5785 143.959 42.5785Z" fill="white"/>
</svg>
