<svg width="18" height="14" viewBox="0 0 18 14" fill="none" xmlns="http://www.w3.org/2000/svg">
<g clip-path="url(#clip0_33_154)">
<path fill-rule="evenodd" clip-rule="evenodd" d="M6.10352e-05 0.00012207H18.0001V14.0001H6.10352e-05V0.00012207Z" fill="#E30A17"/>
<path fill-rule="evenodd" clip-rule="evenodd" d="M11.4469 7.21882C11.4469 9.14966 9.91124 10.7159 8.01562 10.7159C6.11999 10.7159 4.58437 9.14966 4.58437 7.21591C4.58437 5.28216 6.11999 3.72174 8.01562 3.72174C9.91124 3.72174 11.4469 5.28799 11.4469 7.21882Z" fill="white"/>
<path fill-rule="evenodd" clip-rule="evenodd" d="M11.6156 7.21884C11.6156 8.76467 10.3894 10.0159 8.87344 10.0159C7.3575 10.0159 6.12844 8.76175 6.12844 7.21592C6.12844 5.67009 7.3575 4.42175 8.87344 4.42175C10.3894 4.42175 11.6184 5.673 11.6184 7.21884H11.6156Z" fill="#E30A17"/>
<path fill-rule="evenodd" clip-rule="evenodd" d="M12.1134 5.5855L12.0853 6.87758L10.9238 7.20425L12.0713 7.62716L12.0431 8.81425L12.7884 7.88675L13.9191 8.29508L13.2666 7.3005L14.0625 6.31175L12.8391 6.66175L12.1134 5.58258V5.5855Z" fill="white"/>
</g>
<defs>
<clipPath id="clip0_33_154">
<rect width="18" height="14" rx="2" fill="white"/>
</clipPath>
</defs>
</svg>
